<svg xmlns="http://www.w3.org/2000/svg" width="35.176" height="35.176" viewBox="0 0 35.176 35.176" class="h-auto w-[25px] text-white transition-colors duration-300 hover:text-yellow sm:w-[35px]"><path d="M17.588 0a17.588 17.588 0 1 0 17.588 17.588A17.594 17.594 0 0 0 17.588 0Zm0 5.276a5.276 5.276 0 1 1-5.276 5.276 5.269 5.269 0 0 1 5.276-5.276Zm0 24.975a12.664 12.664 0 0 1-10.553-5.663c.053-3.5 7.035-5.417 10.553-5.417 3.5 0 10.5 1.917 10.553 5.417a12.664 12.664 0 0 1-10.553 5.663Z" fill="currentColor"></path></svg>